<svg xmlns="http://www.w3.org/2000/svg" fill="none" viewBox="0 0 283 64"><path fill="black" d="m141.04 16 14.205 24.186L169.5 16h16.225l-27.204 44.186L131.32 16h9.72zm-19.32 0l9.204 24.186L140.7 16h16.225l-17.204 28.186-17.204-28.186h17.204zm-7.32 0l7.204 20.186L129.32 16H145.5l-15.204 24.186L115.32 16h17.204zm-7.32 0L119.52 16h-16.225l27.204 44.186L157.5 16h-16.225L131.32 40.186zm-19.32 0h16.225L75.5 40.186L48.32 16h16.225l17.204 28.186L98.96 16zm33.32 0l9.204 24.186L169.32 16h16.225l-17.204 28.186-17.204-28.186h17.204z"/></svg>
